<?xml version="1.0" standalone="no"?>
<!DOCTYPE svg PUBLIC "-//W3C//DTD SVG 20010904//EN"
 "http://www.w3.org/TR/2001/REC-SVG-20010904/DTD/svg10.dtd">
<svg version="1.0" xmlns="http://www.w3.org/2000/svg"
 width="512.000000pt" height="512.000000pt" viewBox="0 0 512.000000 512.000000"
 preserveAspectRatio="xMidYMid meet">
<metadata>
Created by potrace 1.14, written by Peter Selinger 2001-2017
</metadata>
<g transform="translate(0.000000,512.000000) scale(0.100000,-0.100000)"
fill="#000000" stroke="none">
<path d="M356 2783 c1 -1286 2 -2342 3 -2348 1 -6 79 -10 212 -10 l212 0 0
-208 c0 -114 4 -207 8 -207 5 0 37 19 71 43 35 23 80 53 100 65 l37 23 105
-71 106 -70 2 212 3 213 1773 0 c1765 0 1772 0 1773 20 1 11 2 1067 3 2347 l1
2328 -2205 0 -2205 0 1 -2337z m1305 753 c103 -49 158 -178 119 -279 -38 -96
-105 -139 -220 -142 l-75 -2 -3 -96 -3 -97 -87 0 -87 0 1 307 c1 170 2 313 3
318 1 7 56 10 159 10 126 -1 164 -5 193 -19z m645 -11 c151 -74 221 -266 152
-417 -124 -269 -503 -251 -597 29 -47 140 10 296 137 375 85 53 215 58 308 13z
m645 10 c84 -43 124 -109 123 -205 0 -70 -15 -108 -59 -152 l-27 -27 20 -33
c11 -18 30 -51 42 -73 12 -22 33 -59 47 -82 l25 -43 -99 0 c-109 0 -98 -7
-148 86 -56 104 -59 107 -93 109 l-32 1 0 -98 0 -99 -87 3 -88 3 0 310 c-1
171 3 313 7 316 4 3 81 4 171 3 133 -1 170 -5 198 -19z m721 16 c3 -1 6 -34 5
-74 l-1 -74 -73 0 c-40 -1 -81 -2 -91 -2 -16 -1 -17 -18 -17 -238 l0 -238 -88
-3 -87 -3 0 241 c0 185 -3 240 -12 241 -7 1 -48 1 -90 1 -60 0 -78 3 -79 14
-1 18 -1 122 0 132 1 5 498 8 533 3z m-1452 -798 c128 -52 213 -189 203 -327
-5 -69 -54 -166 -106 -212 -69 -60 -119 -78 -217 -78 -73 0 -92 4 -138 27 -67
35 -118 88 -150 157 -22 45 -26 70 -27 135 0 69 4 88 29 138 76 149 257 221
406 160z m1490 12 c57 -12 128 -55 166 -102 80 -98 101 -241 50 -341 -74 -146
-218 -217 -368 -182 -65 16 -112 44 -162 100 -100 111 -111 270 -25 396 74
108 204 158 339 129z m-1969 -42 c1 -51 -1 -96 -6 -101 -1 -1 -59 -3 -129 -4
l-126 -1 0 -52 0 -52 101 0 c65 0 103 -4 108 -11 4 -7 6 -29 5 -49 -1 -21 -3
-48 -3 -60 -1 -22 -4 -23 -106 -23 l-104 0 -3 -117 -3 -118 -82 0 c-49 -1 -84
3 -86 10 -3 9 -1 616 2 623 1 1 98 2 216 2 l215 0 1 -47z m945 -193 l-1 -240
141 0 c105 0 143 -3 146 -12 4 -11 3 -122 -1 -138 -1 -4 -429 -5 -453 -1 -3 1
-6 143 -6 316 l0 315 88 0 88 0 -2 -240z m536 228 c2 -7 3 -150 3 -317 l-1
-305 -74 -1 c-41 -1 -81 1 -87 3 -10 3 -13 76 -13 318 l0 314 84 0 c58 0 85
-4 88 -12z"/>
<path d="M1485 3401 c-3 -2 -5 -33 -5 -68 0 -49 3 -63 15 -64 74 -5 114 5 116
29 4 44 0 76 -13 88 -13 13 -103 25 -113 15z"/>
<path d="M2135 3400 c-46 -10 -72 -30 -94 -75 -40 -81 -16 -194 51 -235 71
-43 163 -14 198 63 60 130 -30 273 -155 247z"/>
<path d="M2750 3338 c0 -38 3 -68 8 -69 100 -13 142 6 142 64 0 54 -17 67 -88
70 l-62 2 0 -67z"/>
<path d="M2044 2606 c-50 -22 -78 -70 -82 -142 -7 -107 50 -176 145 -176 75 0
129 56 138 143 14 133 -90 223 -201 175z"/>
<path d="M3560 2598 c-45 -31 -70 -82 -70 -142 0 -101 59 -169 147 -169 55 0
90 24 120 82 27 52 25 133 -3 182 -39 66 -133 88 -194 47z"/>
</g>
</svg>
