<svg id="Layer_1" enable-background="new 0 0 512 512" height="512" viewBox="0 0 512 512" width="512" xmlns="http://www.w3.org/2000/svg"><g><g><path d="m335.191 77.391c-20.866-49.906-49.415-77.391-80.388-77.391s-59.522 27.484-80.389 77.391c-19.998 47.831-31.012 111.262-31.012 178.609s11.014 130.778 31.012 178.609c20.867 49.907 49.416 77.391 80.389 77.391s59.522-27.484 80.388-77.391c19.999-47.83 31.013-111.262 31.013-178.609s-11.014-130.778-31.013-178.609zm-13.839 351.432c-18.115 43.328-42.372 68.177-66.549 68.177s-48.434-24.85-66.549-68.177c-19.25-46.04-29.852-107.417-29.852-172.823s10.602-126.783 29.852-172.823c18.115-43.327 42.371-68.177 66.549-68.177s48.434 24.85 66.549 68.177c19.25 46.04 29.852 107.417 29.852 172.823s-10.602 126.783-29.852 172.823z" fill="#96c9d6"/></g><g fill="#edf8f9"><path d="m479.538 363.16c-3.302-2.5-8.007-1.848-10.506 1.455-14.096 18.626-48.278 27.495-93.782 24.332-48.188-3.349-105.433-19.519-161.187-45.53-50.167-23.405-94.262-52.272-127.517-83.479-31.515-29.575-50.431-58.973-53.264-82.777-.489-4.113-4.213-7.051-8.333-6.561-4.113.489-7.051 4.22-6.561 8.333 3.296 27.699 23.315 59.492 57.894 91.942 34.399 32.281 79.851 62.066 131.44 86.135 57.382 26.771 116.508 43.427 166.488 46.9 6.472.45 12.726.673 18.756.673 41.863 0 72.764-10.747 88.027-30.917 2.5-3.303 1.848-8.007-1.455-10.506z"/><path d="m491.574 337.005c-3.462-56.676-81.465-131.523-189.689-182.015-122.192-57.006-240.106-63.574-274.281-15.277-2.393 3.381-1.591 8.062 1.79 10.454 3.379 2.392 8.061 1.591 10.454-1.79 13.531-19.123 47.522-28.385 93.262-25.407 48.457 3.154 106.143 19.353 162.432 45.614 101.82 47.503 177.967 118.719 181.059 169.335.243 3.979 3.546 7.043 7.479 7.043.153 0 .309-.004.464-.014 4.135-.252 7.282-3.809 7.03-7.943z"/></g><g fill="#c0dbe2"><path d="m486.707 147.811c-8.932-19.164-29.301-32.14-58.908-37.526-4.069-.741-7.979 1.962-8.721 6.037-.741 4.075 1.961 7.98 6.036 8.721 17.163 3.122 39.422 10.706 47.997 29.104 10.219 21.926-2.04 54.425-33.633 89.164-33.57 36.912-84.688 72.463-143.936 100.104-69.054 32.216-141.369 49.295-193.453 45.691-4.134-.29-7.714 2.832-8 6.964s2.832 7.714 6.964 8c5.101.354 10.344.528 15.735.528 53.063 0 119.448-16.962 185.096-47.589 61.008-28.463 113.814-65.257 148.69-103.606 36.389-40.01 49.22-77.51 36.133-105.592z"/><path d="m214.063 168.584c61.874-28.867 126.338-45.692 176.861-46.162 4.143-.039 7.469-3.427 7.431-7.569-.039-4.118-3.389-7.43-7.498-7.43-.024 0-.048 0-.071 0-52.592.489-119.316 17.827-183.064 47.567-61.008 28.463-113.814 65.257-148.69 103.606-36.388 40.011-49.22 77.511-36.132 105.593 7.104 15.241 21.07 26.397 41.512 33.158.782.259 1.576.381 2.356.381 3.147 0 6.078-1.996 7.12-5.147 1.301-3.933-.833-8.175-4.766-9.476-16.361-5.412-27.338-13.908-32.626-25.254-10.219-21.926 2.04-54.425 33.633-89.164 33.569-36.91 84.686-72.461 143.934-100.103z"/></g><path d="m310.875 255.997c0 30.93-25.16 56.09-56.07 56.09-1.8 0-3.59-.09-5.35-.26-28.42-2.69-50.72-26.7-50.72-55.83 0-29.12 22.29-53.12 50.7-55.83 1.77-.17 3.56-.26 5.37-.26 30.91 0 56.07 25.16 56.07 56.09z" fill="#ad92ff"/><path d="m310.875 255.997c0 30.93-25.16 56.09-56.07 56.09-1.8 0-3.59-.09-5.35-.26 21.43-9.46 36.42-30.93 36.42-55.83s-15-46.37-36.44-55.83c1.77-.17 3.56-.26 5.37-.26 30.91 0 56.07 25.16 56.07 56.09z" fill="#7762f4"/><g fill="#ad92ff"><ellipse cx="25.49" cy="160.047" rx="25.49" ry="25.499"/><path d="m486.51 329.798c-14.056 0-25.49 11.439-25.49 25.5 0 14.06 11.435 25.499 25.49 25.499s25.49-11.44 25.49-25.5-11.434-25.499-25.49-25.499z"/><path d="m83.578 371.141c-14.056 0-25.491 11.439-25.491 25.499s11.435 25.499 25.491 25.499c14.055 0 25.49-11.439 25.49-25.499s-11.435-25.499-25.49-25.499z"/><ellipse cx="408.825" cy="114.073" rx="25.49" ry="25.499"/></g><circle cx="254.803" cy="255.997" fill="#7762f4" r="7.5"/><g fill="#ff76b4"><ellipse cx="67.873" cy="322.457" rx="7.501" ry="7.5" transform="matrix(1 -.009 .009 1 -2.928 .63)"/><ellipse cx="272.153" cy="448.846" rx="7.501" ry="7.5" transform="matrix(1 -.009 .009 1 -4.068 2.492)"/><ellipse cx="231.183" cy="75.287" rx="7.501" ry="7.5" transform="matrix(1 -.009 .009 1 -.675 2.104)"/><path d="m404.788 341.655c-4.143 0-7.501 3.358-7.501 7.5s3.358 7.5 7.501 7.5 7.501-3.358 7.501-7.5-3.358-7.5-7.501-7.5z"/></g></g></svg>